<?xml version="1.0" encoding="UTF-8"?>
<svg id="Layer_1" data-name="Layer 1" xmlns="http://www.w3.org/2000/svg" viewBox="0 0 880.52 1000">
  <defs>
    <style>
      .cls-1 {
        fill: #5db9c7;
      }
    </style>
  </defs>
  <path class="cls-1" d="M554.59,228.78c126.6,25.01,148.99,134.92,140.54,196.66-.28,2.04,2.31,3.18,3.59,1.57,72.93-91.28,26-237.6-64.68-295.37-.63-.4-1.43-.44-2.08-.08-30.2,16.58-71.55,69.65-78.95,94.65-.34,1.15.41,2.33,1.58,2.56Z"/>
  <circle class="cls-1" cx="502.18" cy="145.24" r="26.39"/>
  <path class="cls-1" d="M565.17,149.47c9.48-5.39,51.83-41.56,51.83-41.56-19.35-30.03-81.52-67.54-154.7-70.96-48.76-3.84-109.32-3.57-162.96-7.8-28.28-2.23-57.81-3.48-81.32-7.66C169.01,12.77,137.55,0,137.55,0c0,0,27.2,21.8,59.41,41.87,25.05,15.61,54.15,29.65,69.27,34.9,57.42,19.91,106.25,16.98,159.85,15.77,25.31-.57,52.18-2.77,80.59,1.71,44.17,6.97,58.49,55.22,58.49,55.22Z"/>
  <path class="cls-1" d="M403.56,119.51l47.2-.06c-22.47,68.72,54.07,100.97,93.11,62.32-18.22,34.45-29.41,70.14-23.25,109.69-59.55,5.89-123.19-36.08-131.13-95.82-5.91-44.5,14.07-76.13,14.07-76.13Z"/>
  <path class="cls-1" d="M80.48,287.21c-.16.35.25.68.56.46,48.53-36.12,97.55-73.14,154.38-94.69,37.63-13.48,84.38-29.96,125.26-29.96,1-13.99,8.75-34.25,16.8-46.55-146.78,0-247.5,62.56-297.01,170.75Z"/>
  <path class="cls-1" d="M362.47,192.25C294.03,178.98,12.82,267.4.65,517.79c-14.19,291.94,206.14,486.22,490.16,482.15C221.05,938.42-137.05,442.94,362.42,207.51l.06-15.26Z"/>
  <path class="cls-1" d="M363.7,226.44c-208.7,165.35-111.2,398.91-72.27,457.28,53.19,79.76,126.04,145.1,199.38,186.21,120.87,67.76,250.6,65.97,250.6,65.97-9.33,7.5-209.46,112.41-428.49-68.68-123.06-101.75-197.34-293.65-149.02-440.95,33.34-101.63,97.76-171.27,199.81-199.84Z"/>
  <path class="cls-1" d="M548.75,253.09c-5.85,17.6-7.92,35.63-8.93,54.83,15.02,0,66.07-7.14,106.2,18.2,1.64-14.68-52.85-65.51-97.28-73.03Z"/>
  <path class="cls-1" d="M483.44,320.12c-142.92,37.47-112.02,122.98-112.02,202.39-59.21-43.91-100.53-189.81,8.37-274.16,0,0,17.73,24.11,43.13,43.66,18.43,14.18,43.74,22.89,60.52,28.12Z"/>
  <path class="cls-1" d="M296.42,340.07c-29.24,145.88,73.39,302.4,189.77,381.57,107.63,73.22,261.03,129.79,394.33,97.44-72.83,54.85-167.64,80.3-261.88,63.71-237.93-47.22-439.57-316.93-322.22-542.72Z"/>
</svg>