<?xml version="1.0" encoding="UTF-8"?>
<svg id="Layer_1" xmlns="http://www.w3.org/2000/svg" version="1.1" viewBox="0 0 667.43 758">
  <!-- Generator: Adobe Illustrator 29.8.2, SVG Export Plug-In . SVG Version: 2.1.1 Build 3)  -->
  <defs>
    <style>
      .st0 {
        fill: #5fbac8;
        stroke: #5fbac8;
        stroke-miterlimit: 10;
      }
    </style>
  </defs>
  <path class="st0" d="M420.38,173.42c95.96,18.96,112.93,102.27,106.53,149.07-.21,1.55,1.75,2.41,2.72,1.19,55.28-69.19,19.7-180.1-49.03-223.89-.48-.3-1.08-.33-1.58-.06-22.89,12.57-54.24,52.79-59.84,71.74-.26.87.31,1.77,1.2,1.94h0Z"/>
  <circle class="st0" cx="380.65" cy="110.09" r="20"/>
  <path class="st0" d="M428.4,113.3c7.19-4.09,39.29-31.5,39.29-31.5-14.66-22.76-61.79-51.2-117.26-53.79-36.96-2.91-82.87-2.71-123.52-5.91-21.43-1.69-43.82-2.64-61.64-5.81C128.11,9.68,104.26,0,104.26,0c0,0,20.62,16.52,45.03,31.74,18.99,11.83,41.05,22.48,52.51,26.45,43.53,15.09,80.54,12.87,121.16,11.95,19.18-.43,39.55-2.1,61.09,1.3,33.48,5.28,44.34,41.86,44.34,41.86h0Z"/>
  <path class="st0" d="M305.9,90.59l35.78-.05c-17.03,52.09,40.98,76.53,70.57,47.23-13.81,26.12-22.29,53.17-17.63,83.15-45.14,4.46-93.38-27.35-99.4-72.63-4.48-33.73,10.67-57.71,10.67-57.71h0Z"/>
  <path class="st0" d="M61,217.7c-.12.26.19.52.42.35,36.79-27.38,73.94-55.44,117.02-71.77,28.52-10.22,63.96-22.71,94.95-22.71.76-10.6,6.63-25.96,12.73-35.29-111.26,0-187.61,47.42-225.13,129.43h0Z"/>
  <path class="st0" d="M274.75,145.73C222.87,135.67,9.72,202.69.49,392.48c-10.76,221.29,156.26,368.56,371.54,365.47-204.47-46.63-475.92-422.2-97.32-600.66l.04-11.57h0Z"/>
  <path class="st0" d="M275.68,171.64c-158.19,125.34-84.29,302.38-54.78,346.62,40.32,60.46,95.54,109.99,151.13,141.15,91.62,51.36,189.95,50.01,189.95,50.01-7.07,5.68-158.77,85.21-324.8-52.06-93.28-77.13-149.59-222.58-112.96-334.24,25.27-77.03,74.1-129.82,151.46-151.48h0Z"/>
  <path class="st0" d="M415.95,191.84c-4.43,13.34-6,27.01-6.77,41.56,11.38,0,50.08-5.41,80.5,13.8,1.25-11.13-40.06-49.65-73.74-55.35h0Z"/>
  <path class="st0" d="M366.45,242.65c-108.33,28.4-84.91,93.22-84.91,153.41-44.88-33.28-76.2-143.88,6.35-207.81,0,0,13.44,18.28,32.69,33.09,13.97,10.75,33.15,17.35,45.87,21.31Z"/>
  <path class="st0" d="M224.68,257.77c-22.17,110.58,55.63,229.22,143.84,289.23,81.59,55.5,197.86,98.38,298.91,73.86-55.21,41.58-127.07,60.86-198.5,48.29-180.35-35.79-333.19-240.24-244.24-411.38h0Z"/>
</svg>