<?xml version="1.0" encoding="UTF-8"?>
<svg id="Layer_1" data-name="Layer 1" xmlns="http://www.w3.org/2000/svg" viewBox="0 0 2061.57 773">
  <defs>
    <style>
      .cls-1 {
        fill: #404040;
      }

      .cls-2 {
        fill: #5db9c7;
      }
    </style>
  </defs>
  <g>
    <path class="cls-2" d="M428.7,176.85c97.86,19.33,115.17,104.29,108.64,152.02-.22,1.58,1.78,2.46,2.78,1.21,56.37-70.56,20.09-183.66-50-228.32-.49-.31-1.1-.34-1.61-.06-23.35,12.81-55.31,53.84-61.03,73.16-.26.89.31,1.8,1.22,1.98Z"/>
    <circle class="cls-2" cx="388.18" cy="112.27" r="20.4"/>
    <path class="cls-2" d="M436.87,115.54c7.33-4.17,40.06-32.13,40.06-32.13-14.95-23.21-63.02-52.21-119.59-54.85-37.69-2.97-84.51-2.76-125.96-6.03-21.86-1.72-44.69-2.69-62.86-5.92C130.65,9.87,106.33,0,106.33,0c0,0,21.02,16.85,45.92,32.37,19.36,12.06,41.86,22.92,53.55,26.98,44.39,15.39,82.13,13.12,123.56,12.19,19.56-.44,40.34-2.14,62.3,1.32,34.14,5.39,45.22,42.68,45.22,42.68Z"/>
    <path class="cls-2" d="M311.95,92.38l36.49-.05c-17.37,53.12,41.8,78.05,71.97,48.17-14.08,26.63-22.73,54.22-17.97,84.79-46.03,4.55-95.23-27.89-101.36-74.07-4.57-34.4,10.88-58.85,10.88-58.85Z"/>
    <path class="cls-2" d="M62.21,222.01c-.12.27.2.53.43.35,37.52-27.92,75.4-56.54,119.34-73.19,29.09-10.42,65.22-23.16,96.83-23.16.77-10.81,6.76-26.47,12.99-35.99-113.46,0-191.32,48.36-229.59,131.99Z"/>
    <path class="cls-2" d="M280.19,148.61C227.28,138.35,9.91,206.7.5,400.25c-10.97,225.67,159.35,375.85,378.89,372.7-208.52-47.56-485.34-430.56-99.25-612.54l.04-11.8Z"/>
    <path class="cls-2" d="M281.14,175.04c-161.32,127.82-85.96,308.36-55.87,353.48,41.12,61.65,97.43,112.16,154.12,143.94,93.44,52.38,193.71,51,193.71,51-7.21,5.8-161.92,86.9-331.22-53.09-95.13-78.65-152.55-226.99-115.2-340.85,25.77-78.56,75.57-132.39,154.46-154.48Z"/>
    <path class="cls-2" d="M424.18,195.64c-4.52,13.61-6.12,27.54-6.9,42.38,11.61,0,51.07-5.52,82.1,14.07,1.27-11.35-40.85-50.64-75.19-56.45Z"/>
    <path class="cls-2" d="M373.7,247.45c-110.47,28.96-86.59,95.07-86.59,156.45-45.77-33.94-77.71-146.72,6.47-211.93,0,0,13.71,18.64,33.34,33.75,14.25,10.96,33.81,17.69,46.78,21.73Z"/>
    <path class="cls-2" d="M229.13,262.87c-22.61,112.76,56.73,233.76,146.69,294.95,83.2,56.6,201.78,100.33,304.82,75.32-56.3,42.4-129.58,62.07-202.43,49.25-183.92-36.5-339.79-244.99-249.08-419.52Z"/>
  </g>
  <g>
    <path class="cls-1" d="M563.08,531.51c7.54,7.24,6.34,21.12-2.11,28.66-7.84,7.54-22.02,7.54-28.66,0l-58.53-66.07v51.29c0,11.16-9.96,20.51-22.02,20.51s-22.02-9.65-22.02-20.51v-169.85c.3-10.86,10.56-20.51,22.02-20.51,12.07,0,22.02,9.35,22.02,20.51v49.17l44.35-61.54c5.73-8.45,18.7-10.56,27.45-5.13,9.65,6.03,14.18,18.4,7.24,27.15l-56.72,74.21,66.97,72.1Z"/>
    <path class="cls-1" d="M702.76,554.44c-14.18,9.35-31.98,12.67-48.57,12.67-40.43,0-73.61-29.26-73.61-73.61s33.19-72.71,73.61-72.71,72.1,29.57,72.1,73.91c0,7.54-6.34,12.97-12.97,12.97h-90.81c2.11,16.29,19.91,23.23,34.69,23.23,8.45,0,15.69-.6,24.44-6.64,9.65-6.64,20.51-4.83,26.55,2.11,7.84,9.05,4.83,22.02-5.43,28.06ZM684.05,481.43c-2.11-17.2-13.88-25.64-29.56-25.64s-27.75,7.84-31.38,25.64h60.94Z"/>
    <path class="cls-1" d="M855.71,440.7c.3-10.26,9.96-18.7,21.12-18.7s21.12,8.15,21.12,18.7v106.49c0,10.56-9.65,18.71-21.12,18.71s-20.82-8.45-21.12-18.71v-2.71c-9.05,14.78-26.25,22.63-42.24,22.63-35.9,0-68.48-26.55-68.48-73.31s32.58-73.01,68.48-73.01c9.05,0,30.17,3.92,42.24,22.63v-2.71ZM821.62,529.7c19.01,0,34.39-16.89,34.39-35.6s-15.39-35.6-34.39-35.6c-21.12,0-33.19,16.89-33.19,35.6s12.07,35.6,33.19,35.6Z"/>
    <path class="cls-1" d="M1011.99,379.16c.3-12.37,7.84-22.63,21.12-22.63h63.96c47.36,0,68.48,34.09,68.48,68.18s-21.12,67.88-68.48,67.88h-41.03v52.79c0,11.16-9.96,20.51-22.02,20.51s-22.02-9.65-22.02-20.51v-166.23ZM1056.03,395.45v58.53h38.92c17.2,0,26.25-15.69,26.25-29.26s-8.45-29.26-25.04-29.26h-40.12Z"/>
    <path class="cls-1" d="M1234.63,547.2c0,10.56-9.65,18.71-21.12,18.71s-20.82-8.45-21.12-18.71v-183.12c.3-10.26,9.96-18.7,21.12-18.7s21.12,8.15,21.12,18.7v183.12Z"/>
    <path class="cls-1" d="M1374.91,440.7c.3-10.26,9.96-18.7,21.12-18.7s21.12,8.15,21.12,18.7v106.49c0,10.56-9.65,18.71-21.12,18.71s-20.82-8.45-21.12-18.71v-2.71c-9.05,14.78-26.25,22.63-42.24,22.63-35.9,0-68.48-26.55-68.48-73.31s32.58-73.01,68.48-73.01c9.05,0,30.17,3.92,42.24,22.63v-2.71ZM1340.82,529.7c19.01,0,34.39-16.89,34.39-35.6s-15.39-35.6-34.39-35.6c-21.12,0-33.18,16.89-33.18,35.6s12.07,35.6,33.18,35.6Z"/>
    <path class="cls-1" d="M1494.98,444.02c7.54-14.18,24.13-23.53,40.73-23.53,31.68,0,51.89,19.61,51.89,59.73v66.97c0,10.56-9.65,18.71-21.12,18.71s-20.82-8.45-21.12-18.71v-57.92c0-18.7-10.26-28.06-24.44-28.06s-25.95,7.24-25.95,28.66v57.32c0,10.56-9.65,18.71-21.12,18.71s-20.82-8.45-21.12-18.71v-106.49c.3-10.26,9.96-18.7,21.12-18.7s21.12,8.15,21.12,18.7v3.32Z"/>
    <path class="cls-1" d="M1664.53,444.02c7.54-14.18,24.13-23.53,40.73-23.53,31.68,0,51.89,19.61,51.89,59.73v66.97c0,10.56-9.65,18.71-21.12,18.71s-20.82-8.45-21.12-18.71v-57.92c0-18.7-10.26-28.06-24.44-28.06s-25.95,7.24-25.95,28.66v57.32c0,10.56-9.65,18.71-21.12,18.71s-20.82-8.45-21.12-18.71v-106.49c.3-10.26,9.96-18.7,21.12-18.7s21.12,8.15,21.12,18.7v3.32Z"/>
    <path class="cls-1" d="M1907.09,554.44c-14.18,9.35-31.98,12.67-48.57,12.67-40.42,0-73.61-29.26-73.61-73.61s33.19-72.71,73.61-72.71,72.1,29.57,72.1,73.91c0,7.54-6.33,12.97-12.97,12.97h-90.81c2.11,16.29,19.91,23.23,34.69,23.23,8.45,0,15.69-.6,24.44-6.64,9.65-6.64,20.51-4.83,26.55,2.11,7.84,9.05,4.83,22.02-5.43,28.06ZM1888.38,481.43c-2.11-17.2-13.88-25.64-29.56-25.64s-27.75,7.84-31.38,25.64h60.94Z"/>
    <path class="cls-1" d="M2061.25,444.02c-1.51,10.56-11.46,15.39-20.82,15.39-3.02,0-7.54-.3-10.26-.3-23.53,0-31.38,18.1-31.98,53.4v34.69c0,10.56-9.65,18.71-21.12,18.71s-20.82-8.45-21.12-18.71v-106.49c.3-10.26,9.96-18.7,21.12-18.7s21.12,8.15,21.12,18.7v15.39c7.84-26.25,22.63-35.3,37.11-35.3s28.66,3.32,25.94,23.23Z"/>
  </g>
</svg>